<svg xmlns="http://www.w3.org/2000/svg" width="1200" height="760" viewBox="0 0 1200 760">
  <defs>
    <radialGradient id="goldGlow" cx="50%" cy="40%" r="60%">
      <stop offset="0%" stop-color="#fff5c8" stop-opacity="0.95"/>
      <stop offset="35%" stop-color="#e6bd63" stop-opacity="0.35"/>
      <stop offset="100%" stop-color="#07121d" stop-opacity="0"/>
    </radialGradient>
    <linearGradient id="bg" x1="0" x2="1">
      <stop offset="0%" stop-color="#f8f0dd"/>
      <stop offset="100%" stop-color="#fffaf0"/>
    </linearGradient>
  </defs>

  <rect x="0" y="0" width="1200" height="760" fill="url(#bg)"/>
  <rect x="24" y="24" width="1152" height="712" rx="26" fill="none" stroke="#d6a84e" stroke-width="3"/>
  <rect x="48" y="48" width="1104" height="664" rx="18" fill="none" stroke="#e7cf8e" stroke-width="1.4"/>

  <text x="600" y="86" text-anchor="middle" font-size="24" font-family="Georgia" fill="#25405b" letter-spacing="3">AXIS LUMEN · COURS INITIATIQUE</text>
  <text x="600" y="145" text-anchor="middle" font-size="54" font-family="Georgia" fill="#c88f20" letter-spacing="3">Vertu dans la lumière</text>
  <text x="600" y="190" text-anchor="middle" font-size="25" font-family="Georgia" fill="#25405b">Lire · observer · infuser · incarner</text>

  <circle cx="600" cy="300" r="150" fill="url(#goldGlow)"/>
  <circle cx="600" cy="300" r="118" fill="none" stroke="#d6a84e" stroke-width="2"/>
  <circle cx="600" cy="300" r="78" fill="none" stroke="#d6a84e" stroke-width="1.5"/>
  <circle cx="600" cy="300" r="34" fill="#fff3c1" stroke="#d6a84e" stroke-width="3"/>
  <path d="M600 140 L600 465" stroke="#d6a84e" stroke-width="3"/>
  <path d="M438 300 L762 300" stroke="#d6a84e" stroke-width="2"/>
  <path d="M505 205 C550 170 650 170 695 205 C730 250 730 350 695 395 C650 430 550 430 505 395 C470 350 470 250 505 205Z" fill="none" stroke="#d6a84e" stroke-width="1.5" opacity="0.7"/>

    <g>
    <circle cx="78" cy="330" r="31" fill="#fff6d8" stroke="#d6a84e" stroke-width="3"/>
    <text x="78" y="339" text-anchor="middle" font-size="25" font-family="Georgia" fill="#122035">1</text>
    <text x="78" y="392" text-anchor="middle" font-size="16" font-family="Georgia" fill="#17324a">Tirer</text>
  </g>  <path d="M 116 330 C 142 312, 119 348, 145 330" fill="none" stroke="#d6a84e" stroke-width="2" stroke-dasharray="7 7"/>  <g>
    <circle cx="183" cy="330" r="31" fill="#fff6d8" stroke="#d6a84e" stroke-width="3"/>
    <text x="183" y="339" text-anchor="middle" font-size="25" font-family="Georgia" fill="#122035">2</text>
    <text x="183" y="392" text-anchor="middle" font-size="16" font-family="Georgia" fill="#17324a">Lire</text>
  </g>  <path d="M 221 330 C 247 312, 224 348, 250 330" fill="none" stroke="#d6a84e" stroke-width="2" stroke-dasharray="7 7"/>  <g>
    <circle cx="288" cy="330" r="31" fill="#fff6d8" stroke="#d6a84e" stroke-width="3"/>
    <text x="288" y="339" text-anchor="middle" font-size="25" font-family="Georgia" fill="#122035">3</text>
    <text x="288" y="392" text-anchor="middle" font-size="16" font-family="Georgia" fill="#17324a">30 s</text>
  </g>  <path d="M 326 330 C 352 312, 329 348, 355 330" fill="none" stroke="#d6a84e" stroke-width="2" stroke-dasharray="7 7"/>  <g>
    <circle cx="393" cy="330" r="31" fill="#fff6d8" stroke="#d6a84e" stroke-width="3"/>
    <text x="393" y="339" text-anchor="middle" font-size="25" font-family="Georgia" fill="#122035">4</text>
    <text x="393" y="392" text-anchor="middle" font-size="16" font-family="Georgia" fill="#17324a">3 min</text>
  </g>  <path d="M 431 330 C 457 312, 434 348, 460 330" fill="none" stroke="#d6a84e" stroke-width="2" stroke-dasharray="7 7"/>  <g>
    <circle cx="498" cy="330" r="31" fill="#fff6d8" stroke="#d6a84e" stroke-width="3"/>
    <text x="498" y="339" text-anchor="middle" font-size="25" font-family="Georgia" fill="#122035">5</text>
    <text x="498" y="392" text-anchor="middle" font-size="16" font-family="Georgia" fill="#17324a">Répéter</text>
  </g>  <path d="M 536 330 C 562 312, 539 348, 565 330" fill="none" stroke="#d6a84e" stroke-width="2" stroke-dasharray="7 7"/>  <g>
    <circle cx="603" cy="330" r="31" fill="#fff6d8" stroke="#d6a84e" stroke-width="3"/>
    <text x="603" y="339" text-anchor="middle" font-size="25" font-family="Georgia" fill="#122035">6</text>
    <text x="603" y="392" text-anchor="middle" font-size="16" font-family="Georgia" fill="#17324a">Carnet</text>
  </g>

  <text x="600" y="610" text-anchor="middle" font-size="26" font-family="Georgia" fill="#25405b">Le mot devient climat, le climat devient geste.</text>
  <text x="600" y="665" text-anchor="middle" font-size="20" font-family="Georgia" fill="#b88725">Préparer · Observer · Accueillir · Stabiliser · Noter · Clore</text>
</svg>
