<svg xmlns="http://www.w3.org/2000/svg" viewBox="0 0 900 1200">
  <defs>
    <radialGradient id="bg" cx="50%" cy="38%" r="62%">
      <stop offset="0%" stop-color="#122746"/>
      <stop offset="60%" stop-color="#091426"/>
      <stop offset="100%" stop-color="#060b14"/>
    </radialGradient>
    <radialGradient id="halo" cx="50%" cy="42%" r="42%">
      <stop offset="0%" stop-color="#9fd8ff" stop-opacity="0.65"/>
      <stop offset="55%" stop-color="#7ac2ff" stop-opacity="0.18"/>
      <stop offset="100%" stop-color="#7ac2ff" stop-opacity="0"/>
    </radialGradient>
    <linearGradient id="skin" x1="0" y1="0" x2="0" y2="1">
      <stop offset="0%" stop-color="#efd1bc"/>
      <stop offset="100%" stop-color="#d9b49c"/>
    </linearGradient>
    <linearGradient id="hair" x1="0" y1="0" x2="0" y2="1">
      <stop offset="0%" stop-color="#4b2b1c"/>
      <stop offset="100%" stop-color="#2b170f"/>
    </linearGradient>
    <linearGradient id="shirt" x1="0" y1="0" x2="1" y2="1">
      <stop offset="0%" stop-color="#647fb5"/>
      <stop offset="100%" stop-color="#30456e"/>
    </linearGradient>
    <filter id="soft" x="-20%" y="-20%" width="140%" height="140%">
      <feGaussianBlur stdDeviation="10"/>
    </filter>
  </defs>
  <rect width="900" height="1200" fill="url(#bg)"/>
  <circle cx="450" cy="480" r="280" fill="url(#halo)"/>
  <ellipse cx="450" cy="590" rx="250" ry="300" fill="url(#skin)"/>
  <path d="M250 450c0-210 110-300 200-300s200 90 200 300v90c0 50 5 130-25 182-37 65-103 108-175 108s-138-43-175-108c-30-52-25-132-25-182z" fill="url(#skin)"/>
  <path d="M245 490c0-245 127-352 205-352s205 107 205 352c-20-25-55-40-105-46-39-5-68 8-103 8-34 0-62-13-96-8-54 8-88 24-106 46z" fill="url(#hair)"/>
  <path d="M285 445c35-43 99-70 165-70 67 0 130 27 165 70" fill="none" stroke="#2b170f" stroke-width="48" stroke-linecap="round"/>
  <ellipse cx="330" cy="560" rx="42" ry="62" fill="#f0d2bf"/>
  <ellipse cx="570" cy="560" rx="42" ry="62" fill="#f0d2bf"/>
  <ellipse cx="355" cy="545" rx="56" ry="44" fill="#ffffff"/>
  <ellipse cx="545" cy="545" rx="56" ry="44" fill="#ffffff"/>
  <ellipse cx="355" cy="550" rx="25" ry="29" fill="#7f93b1"/>
  <ellipse cx="545" cy="550" rx="25" ry="29" fill="#7f93b1"/>
  <circle cx="355" cy="552" r="12" fill="#142034"/>
  <circle cx="545" cy="552" r="12" fill="#142034"/>
  <circle cx="360" cy="548" r="4.5" fill="#ffffff"/>
  <circle cx="550" cy="548" r="4.5" fill="#ffffff"/>
  <path d="M300 500c18-28 44-42 79-42 34 0 60 14 77 42" fill="none" stroke="#5d3425" stroke-width="9" stroke-linecap="round"/>
  <path d="M442 522c-10 61-15 96-24 126 21 35 31 52 42 74" fill="none" stroke="#c2947e" stroke-width="12" stroke-linecap="round"/>
  <path d="M388 735c38 26 86 26 124 0" fill="none" stroke="#a55b62" stroke-width="9" stroke-linecap="round"/>
  <path d="M355 800c58-19 132-19 190 0" fill="none" stroke="#8e4e5a" stroke-width="10" stroke-linecap="round"/>
  <path d="M275 470c44-24 86-35 132-35" fill="none" stroke="#3b2015" stroke-width="12" stroke-linecap="round"/>
  <path d="M625 470c-44-24-86-35-132-35" fill="none" stroke="#3b2015" stroke-width="12" stroke-linecap="round"/>
  <path d="M310 870h280c70 0 140 52 170 130l15 40v160H125v-160l15-40c30-78 100-130 170-130z" fill="url(#shirt)"/>
  <path d="M285 864c18-54 65-97 165-97s147 43 165 97c-28 26-70 42-165 42s-137-16-165-42z" fill="#d6b8a8"/>
  <circle cx="450" cy="478" r="275" fill="none" stroke="#9ed8ff" stroke-opacity="0.45" stroke-width="18" filter="url(#soft)"/>
</svg>
